<svg xmlns="http://www.w3.org/2000/svg" width="512" height="512" viewBox="0 0 194.113 194.112"><path d="M142.457 68.25c-7.483-.093-15.056-.57-22.66-1.1 4.503-10.1 11.828-18.372 23.934-23.006 3.75-1.436 4.726-6.757 1.235-8.7.125-3.183.853-6.52 1.305-9.543.53-3.54 1.687-7.86 1.205-11.65.62-2.218.055-4.795-2.286-6.178-42.064-24.85-61.917 11.437-70.16 57.87-8.77.62-17.45 2.015-25.94 4.766-2.617.848-2.628 3.528-1.17 4.96C46.15 83.64 46.26 82 46.626 90.68c.045 1.1.46 1.897 1.057 2.418-1.756 1.624-1.768 4.825 1.28 5.837 7.18 2.383 14.435 3.992 21.78 5.088-1.95 33.188.25 64.795 3.195 78.213.342 1.562 1.155 2.59 2.172 3.2-1.905 2.097-1.807 5.717 1.86 6.86 8.347 2.598 22.338 3.222 29.21-3.69 2.332 2.936 8.465 1.5 8.183-2.93-1.538-24.086-3.51-47.98-2.934-72.157.054-2.24.14-4.5.227-6.76 8.894.09 17.812-.4 25.96-2.59 2.754-.74 3.478-4.01 2.113-6.026-.653-5.78.99-12.018 3.65-17.098.5-.955.69-1.84.68-2.654 4.166-2.245 3.308-10.073-2.6-10.146zm-77.315 7.773c-.288.67-.674 1.28-.988 1.933-.696-.394-1.364-.82-2.07-1.202-1.148-.624-2.276-.727-3.297-.518-.127-.2-.25-.4-.406-.578 2.47-.228 4.945-.395 7.416-.505-.248.263-.48.542-.65.87z" fill="#006DF0"/></svg>